<svg xmlns="http://www.w3.org/2000/svg" style="display: none;">

<!--  menu -->
<symbol id="menu" viewBox="0 -960 960 960">
    <path d="M120-240v-80h720v80H120Zm0-200v-80h720v80H120Zm0-200v-80h720v80H120Z"/>
</symbol>

<!--  close -->
<symbol id="close" viewBox="0 -960 960 960">
    <path d="m256-200-56-56 224-224-224-224 56-56 224 224 224-224 56 56-224 224 224 224-56 56-224-224-224 224Z"/>
</symbol>

<!--  arrow_back -->
<symbol id="arrow_back" viewBox="0 -960 960 960">
    <path d="m313-440 224 224-57 56-320-320 320-320 57 56-224 224h487v80H313Z"/>
</symbol>

<!--  arrow_forward -->
<symbol id="arrow_forward" viewBox="0 -960 960 960">
    <path d="M647-440H160v-80h487L423-744l57-56 320 320-320 320-57-56 224-224Z"/>
</symbol>

<!--  home -->
<symbol id="home" viewBox="0 -960 960 960">
    <path d="M240-200h120v-240h240v240h120v-360L480-740 240-560v360Zm-80 80v-480l320-240 320 240v480H520v-240h-80v240H160Zm320-350Z"/>
</symbol>
 
<!--  filter_list -->
<symbol id="filter_list" viewBox="0 -960 960 960">
    <path d="M400-240v-80h160v80H400ZM240-440v-80h480v80H240ZM120-640v-80h720v80H120Z"/>
</symbol>

<!--  sort -->
<symbol id="sort" viewBox="0 -960 960 960">
    <path d="M120-240v-80h240v80H120Zm0-200v-80h480v80H120Zm0-200v-80h720v80H120Z"/>
</symbol>

<!--  search -->
<symbol id="search" viewBox="0 -960 960 960">
    <path d="M784-120 532-372q-30 24-69 38t-83 14q-109 0-184.5-75.5T120-580q0-109 75.5-184.5T380-840q109 0 184.5 75.5T640-580q0 44-14 83t-38 69l252 252-56 56ZM380-400q75 0 127.5-52.5T560-580q0-75-52.5-127.5T380-760q-75 0-127.5 52.5T200-580q0 75 52.5 127.5T380-400Z"/>
</symbol>
 
<!--  shopping_cart -->
<symbol id="shopping_cart" viewBox="0 -960 960 960">
    <path d="M280-80q-33 0-56.5-23.5T200-160q0-33 23.5-56.5T280-240q33 0 56.5 23.5T360-160q0 33-23.5 56.5T280-80Zm400 0q-33 0-56.5-23.5T600-160q0-33 23.5-56.5T680-240q33 0 56.5 23.5T760-160q0 33-23.5 56.5T680-80ZM246-720l96 200h280l110-200H246Zm-38-80h590q23 0 35 20.5t1 41.5L692-482q-11 20-29.5 31T622-440H324l-44 80h480v80H280q-45 0-68-39.5t-2-78.5l54-98-144-304H40v-80h130l38 80Zm134 280h280-280Z"/>
</symbol>

<!--  receipt_long -->
<symbol id="receipt_long" viewBox="0 -960 960 960">
    <path d="M240-80q-50 0-85-35t-35-85v-120h120v-560l60 60 60-60 60 60 60-60 60 60 60-60 60 60 60-60 60 60 60-60v680q0 50-35 85t-85 35H240Zm480-80q17 0 28.5-11.5T760-200v-560H320v440h360v120q0 17 11.5 28.5T720-160ZM360-600v-80h240v80H360Zm0 120v-80h240v80H360Zm320-120q-17 0-28.5-11.5T640-640q0-17 11.5-28.5T680-680q17 0 28.5 11.5T720-640q0 17-11.5 28.5T680-600Zm0 120q-17 0-28.5-11.5T640-520q0-17 11.5-28.5T680-560q17 0 28.5 11.5T720-520q0 17-11.5 28.5T680-480ZM240-160h360v-80H200v40q0 17 11.5 28.5T240-160Zm-40 0v-80 80Z"/>
</symbol>

<!--  local_shipping -->
<symbol id="local_shipping" viewBox="0 -960 960 960">
    <path d="M240-160q-50 0-85-35t-35-85H40v-440q0-33 23.5-56.5T120-800h560v160h120l120 160v200h-80q0 50-35 85t-85 35q-50 0-85-35t-35-85H360q0 50-35 85t-85 35Zm0-80q17 0 28.5-11.5T280-280q0-17-11.5-28.5T240-320q-17 0-28.5 11.5T200-280q0 17 11.5 28.5T240-240ZM120-360h32q17-18 39-29t49-11q27 0 49 11t39 29h272v-360H120v360Zm600 120q17 0 28.5-11.5T760-280q0-17-11.5-28.5T720-320q-17 0-28.5 11.5T680-280q0 17 11.5 28.5T720-240Zm-40-200h170l-90-120h-80v120ZM360-540Z"/>
</symbol>

<!--  add_shopping_cart -->
<symbol id="add_shopping_cart" viewBox="0 -960 960 960">
    <path d="M440-600v-120H320v-80h120v-120h80v120h120v80H520v120h-80ZM280-80q-33 0-56.5-23.5T200-160q0-33 23.5-56.5T280-240q33 0 56.5 23.5T360-160q0 33-23.5 56.5T280-80Zm400 0q-33 0-56.5-23.5T600-160q0-33 23.5-56.5T680-240q33 0 56.5 23.5T760-160q0 33-23.5 56.5T680-80ZM40-800v-80h131l170 360h280l156-280h91L692-482q-11 20-29.5 31T622-440H324l-44 80h480v80H280q-45 0-68.5-39t-1.5-79l54-98-144-304H40Z"/>
</symbol>

<!--  remove_shopping_cart -->
<symbol id="remove_shopping_cart" viewBox="0 -960 960 960">
    <path d="M360-640v-80h240v80H360ZM280-80q-33 0-56.5-23.5T200-160q0-33 23.5-56.5T280-240q33 0 56.5 23.5T360-160q0 33-23.5 56.5T280-80Zm400 0q-33 0-56.5-23.5T600-160q0-33 23.5-56.5T680-240q33 0 56.5 23.5T760-160q0 33-23.5 56.5T680-80ZM40-800v-80h131l170 360h280l156-280h91L692-482q-11 20-29.5 31T622-440H324l-44 80h480v80H280q-45 0-68.5-39t-1.5-79l54-98-144-304H40Z"/>
</symbol>
 
<!--  favorite -->
<symbol id="favorite" viewBox="0 -960 960 960">
    <path d="m480-120-58-52q-101-91-167-157T150-447.5Q111-500 95.5-544T80-634q0-94 63-157t157-63q52 0 99 22t81 62q34-40 81-62t99-22q94 0 157 63t63 157q0 46-15.5 90T810-447.5Q771-395 705-329T538-172l-58 52Zm0-108q96-86 158-147.5t98-107q36-45.5 50-81t14-70.5q0-60-40-100t-100-40q-47 0-87 26.5T518-680h-76q-15-41-55-67.5T300-774q-60 0-100 40t-40 100q0 35 14 70.5t50 81q36 45.5 98 107T480-228Zm0-273Z"/>
</symbol>

<!--  favorite_fill -->
<symbol id="favorite_fill" viewBox="0 -960 960 960">
    <path d="m480-120-58-52q-101-91-167-157T150-447.5Q111-500 95.5-544T80-634q0-94 63-157t157-63q52 0 99 22t81 62q34-40 81-62t99-22q94 0 157 63t63 157q0 46-15.5 90T810-447.5Q771-395 705-329T538-172l-58 52Z"/>
</symbol>

<!--  star -->
<symbol id="star" viewBox="0 -960 960 960">
    <path d="m354-287 126-76 126 77-33-144 111-96-146-13-58-136-58 135-146 13 111 97-33 143ZM233-120l65-281L80-590l288-25 112-265 112 265 288 25-218 189 65 281-247-149-247 149Zm247-350Z"/>
</symbol>

<!--  star_fill -->
<symbol id="star_fill" viewBox="0 -960 960 960">
    <path d="m233-120 65-281L80-590l288-25 112-265 112 265 288 25-218 189 65 281-247-149-247 149Z"/>
</symbol>
 
<!--  account_circle -->
<symbol id="account_circle" viewBox="0 -960 960 960">
    <path d="M234-276q51-39 114-61.5T480-360q69 0 132 22.5T726-276q35-41 54.5-93T800-480q0-133-93.5-226.5T480-800q-133 0-226.5 93.5T160-480q0 59 19.5 111t54.5 93Zm246-164q-59 0-99.5-40.5T340-580q0-59 40.5-99.5T480-720q59 0 99.5 40.5T620-580q0 59-40.5 99.5T480-440Zm0 360q-83 0-156-31.5T197-197q-54-54-85.5-127T80-480q0-83 31.5-156T197-763q54-54 127-85.5T480-880q83 0 156 31.5T763-763q54 54 85.5 127T880-480q0 83-31.5 156T763-197q-54 54-127 85.5T480-80Zm0-80q53 0 100-15.5t86-44.5q-39-29-86-44.5T480-280q-53 0-100 15.5T294-220q39 29 86 44.5T480-160Zm0-360q26 0 43-17t17-43q0-26-17-43t-43-17q-26 0-43 17t-17 43q0 26 17 43t43 17Zm0-60Zm0 360Z"/>
</symbol>

<!--  login -->
<symbol id="login" viewBox="0 -960 960 960">
    <path d="M480-120v-80h280v-560H480v-80h280q33 0 56.5 23.5T840-760v560q0 33-23.5 56.5T760-120H480Zm-80-160-55-58 102-102H120v-80h327L345-622l55-58 200 200-200 200Z"/>
</symbol>

<!--  logout -->
<symbol id="logout" viewBox="0 -960 960 960">
    <path d="M200-120q-33 0-56.5-23.5T120-200v-560q0-33 23.5-56.5T200-840h280v80H200v560h280v80H200Zm440-160-55-58 102-102H360v-80h327L585-622l55-58 200 200-200 200Z"/>
</symbol>

<!--  settings -->
<symbol id="settings" viewBox="0 -960 960 960">
    <path d="m370-80-16-128q-13-5-24.5-12T307-235l-119 50L78-375l103-78q-1-7-1-13.5v-27q0-6.5 1-13.5L78-585l110-190 119 50q11-8 23-15t24-12l16-128h220l16 128q13 5 24.5 12t22.5 15l119-50 110 190-103 78q1 7 1 13.5v27q0 6.5-2 13.5l103 78-110 190-118-50q-11 8-23 15t-24 12L590-80H370Zm70-80h79l14-106q31-8 57.5-23.5T639-327l99 41 39-68-86-65q5-14 7-29.5t2-31.5q0-16-2-31.5t-7-29.5l86-65-39-68-99 42q-22-23-48.5-38.5T533-694l-13-106h-79l-14 106q-31 8-57.5 23.5T321-633l-99-41-39 68 86 64q-5 15-7 30t-2 32q0 16 2 31t7 30l-86 65 39 68 99-42q22 23 48.5 38.5T427-266l13 106Zm42-180q58 0 99-41t41-99q0-58-41-99t-99-41q-59 0-99.5 41T342-480q0 58 40.5 99t99.5 41Zm-2-140Z"/>
</symbol>
 
<!--  zoom_out_map -->
<symbol id="zoom_out_map" viewBox="0 -960 960 960">
    <path d="M120-120v-240h80v104l124-124 56 56-124 124h104v80H120Zm480 0v-80h104L580-324l56-56 124 124v-104h80v240H600ZM324-580 200-704v104h-80v-240h240v80H256l124 124-56 56Zm312 0-56-56 124-124H600v-80h240v240h-80v-104L636-580Z"/>
</symbol>

<!--  save -->
<symbol id="save" viewBox="0 -960 960 960">
    <path d="M840-680v480q0 33-23.5 56.5T760-120H200q-33 0-56.5-23.5T120-200v-560q0-33 23.5-56.5T200-840h480l160 160Zm-80 34L646-760H200v560h560v-446ZM480-240q50 0 85-35t35-85q0-50-35-85t-85-35q-50 0-85 35t-35 85q0 50 35 85t85 35ZM240-560h360v-160H240v160Zm-40-86v446-560 114Z"/>
</symbol>

<!--  share -->
<symbol id="share" viewBox="0 -960 960 960">
    <path d="M680-80q-50 0-85-35t-35-85q0-6 3-28L282-392q-16 15-37 23.5t-45 8.5q-50 0-85-35t-35-85q0-50 35-85t85-35q24 0 45 8.5t37 23.5l281-164q-2-7-2.5-13.5T560-760q0-50 35-85t85-35q50 0 85 35t35 85q0 50-35 85t-85 35q-24 0-45-8.5T598-672L317-508q2 7 2.5 13.5t.5 14.5q0 8-.5 14.5T317-452l281 164q16-15 37-23.5t45-8.5q50 0 85 35t35 85q0 50-35 85t-85 35Zm0-80q17 0 28.5-11.5T720-200q0-17-11.5-28.5T680-240q-17 0-28.5 11.5T640-200q0 17 11.5 28.5T680-160ZM200-440q17 0 28.5-11.5T240-480q0-17-11.5-28.5T200-520q-17 0-28.5 11.5T160-480q0 17 11.5 28.5T200-440Zm480-280q17 0 28.5-11.5T720-760q0-17-11.5-28.5T680-800q-17 0-28.5 11.5T640-760q0 17 11.5 28.5T680-720Zm0 520ZM200-480Zm480-280Z"/>
</symbol>

<!--  download -->
<symbol id="download" viewBox="0 -960 960 960">
    <path d="M480-320 280-520l56-58 104 104v-326h80v326l104-104 56 58-200 200ZM240-160q-33 0-56.5-23.5T160-240v-120h80v120h480v-120h80v120q0 33-23.5 56.5T720-160H240Z"/>
</symbol>

<!--  picture_as_pdf -->
<symbol id="picture_as_pdf" viewBox="0 -960 960 960">
    <path d="M360-460h40v-80h40q17 0 28.5-11.5T480-580v-40q0-17-11.5-28.5T440-660h-80v200Zm40-120v-40h40v40h-40Zm120 120h80q17 0 28.5-11.5T640-500v-120q0-17-11.5-28.5T600-660h-80v200Zm40-40v-120h40v120h-40Zm120 40h40v-80h40v-40h-40v-40h40v-40h-80v200ZM320-240q-33 0-56.5-23.5T240-320v-480q0-33 23.5-56.5T320-880h480q33 0 56.5 23.5T880-800v480q0 33-23.5 56.5T800-240H320Zm0-80h480v-480H320v480ZM160-80q-33 0-56.5-23.5T80-160v-560h80v560h560v80H160Zm160-720v480-480Z"/>
</symbol>
 
<!--  check_circle -->
<symbol id="check_circle" viewBox="0 -960 960 960">
    <path d="m424-296 282-282-56-56-226 226-114-114-56 56 170 170Zm56 216q-83 0-156-31.5T197-197q-54-54-85.5-127T80-480q0-83 31.5-156T197-763q54-54 127-85.5T480-880q83 0 156 31.5T763-763q54 54 85.5 127T880-480q0 83-31.5 156T763-197q-54 54-127 85.5T480-80Zm0-80q134 0 227-93t93-227q0-134-93-227t-227-93q-134 0-227 93t-93 227q0 134 93 227t227 93Zm0-320Z"/>
</symbol>

<!--  error -->
<symbol id="error" viewBox="0 -960 960 960">
    <path d="M480-280q17 0 28.5-11.5T520-320q0-17-11.5-28.5T480-360q-17 0-28.5 11.5T440-320q0 17 11.5 28.5T480-280Zm-40-160h80v-240h-80v240Zm40 360q-83 0-156-31.5T197-197q-54-54-85.5-127T80-480q0-83 31.5-156T197-763q54-54 127-85.5T480-880q83 0 156 31.5T763-763q54 54 85.5 127T880-480q0 83-31.5 156T763-197q-54 54-127 85.5T480-80Zm0-80q134 0 227-93t93-227q0-134-93-227t-227-93q-134 0-227 93t-93 227q0 134 93 227t227 93Zm0-320Z"/>
</symbol>

<!--  warning -->
<symbol id="warning" viewBox="0 -960 960 960">
    <path d="m40-120 440-760 440 760H40Zm138-80h604L480-720 178-200Zm302-40q17 0 28.5-11.5T520-280q0-17-11.5-28.5T480-320q-17 0-28.5 11.5T440-280q0 17 11.5 28.5T480-240Zm-40-120h80v-200h-80v200Zm40-100Z"/>
</symbol>

<!--  info -->
<symbol id="info" viewBox="0 -960 960 960">
    <path d="M440-280h80v-240h-80v240Zm40-320q17 0 28.5-11.5T520-640q0-17-11.5-28.5T480-680q-17 0-28.5 11.5T440-640q0 17 11.5 28.5T480-600Zm0 520q-83 0-156-31.5T197-197q-54-54-85.5-127T80-480q0-83 31.5-156T197-763q54-54 127-85.5T480-880q83 0 156 31.5T763-763q54 54 85.5 127T880-480q0 83-31.5 156T763-197q-54 54-127 85.5T480-80Zm0-80q134 0 227-93t93-227q0-134-93-227t-227-93q-134 0-227 93t-93 227q0 134 93 227t227 93Zm0-320Z"/>
</symbol>

<!--  hourglass_empty -->
<symbol id="hourglass_empty" viewBox="0 -960 960 960">
    <path d="M320-160h320v-120q0-66-47-113t-113-47q-66 0-113 47t-47 113v120Zm160-360q66 0 113-47t47-113v-120H320v120q0 66 47 113t113 47ZM160-80v-80h80v-120q0-61 28.5-114.5T348-480q-51-32-79.5-85.5T240-680v-120h-80v-80h640v80h-80v120q0 61-28.5 114.5T612-480q51 32 79.5 85.5T720-280v120h80v80H160Z"/>
</symbol>
 
<!--  add -->
<symbol id="add" viewBox="0 -960 960 960">
    <path d="M440-440H200v-80h240v-240h80v240h240v80H520v240h-80v-240Z"/>
</symbol>

<!--  remove -->
<symbol id="remove" viewBox="0 -960 960 960">
    <path d="M200-440v-80h560v80H200Z"/>
</symbol>

<!--  refresh -->
<symbol id="refresh" viewBox="0 -960 960 960">
    <path d="M480-160q-134 0-227-93t-93-227q0-134 93-227t227-93q69 0 132 28.5T720-690v-110h80v280H520v-80h168q-32-56-87.5-88T480-720q-100 0-170 70t-70 170q0 100 70 170t170 70q77 0 139-44t87-116h84q-28 106-114 173t-196 67Z"/>
</symbol>

<!--  edit -->
<symbol id="edit" viewBox="0 -960 960 960">
    <path d="M200-200h57l391-391-57-57-391 391v57Zm-80 80v-170l528-527q12-11 26.5-17t30.5-6q16 0 31 6t26 18l55 56q12 11 17.5 26t5.5 30q0 16-5.5 30.5T817-647L290-120H120Zm640-584-56-56 56 56Zm-141 85-28-29 57 57-29-28Z"/>
</symbol>

<!--  delete -->
<symbol id="delete" viewBox="0 -960 960 960">
    <path d="M280-120q-33 0-56.5-23.5T200-200v-520h-40v-80h200v-40h240v40h200v80h-40v520q0 33-23.5 56.5T680-120H280Zm400-600H280v520h400v-520ZM360-280h80v-360h-80v360Zm160 0h80v-360h-80v360ZM280-720v520-520Z"/>
</symbol>
  
<!--  location_on -->
<symbol id="location_on" viewBox="0 -960 960 960">
    <path d="M480-480q33 0 56.5-23.5T560-560q0-33-23.5-56.5T480-640q-33 0-56.5 23.5T400-560q0 33 23.5 56.5T480-480Zm0 294q122-112 181-203.5T720-552q0-109-69.5-178.5T480-800q-101 0-170.5 69.5T240-552q0 71 59 162.5T480-186Zm0 106Q319-217 239.5-334.5T160-552q0-150 96.5-239T480-880q127 0 223.5 89T800-552q0 100-79.5 217.5T480-80Zm0-480Z"/>
</symbol>

<!--  call -->
<symbol id="call" viewBox="0 -960 960 960">
    <path d="M798-120q-125 0-247-54.5T329-329Q229-429 174.5-551T120-798q0-18 12-30t30-12h162q14 0 25 9.5t13 22.5l26 140q2 16-1 27t-11 19l-97 98q20 37 47.5 71.5T387-386q31 31 65 57.5t72 48.5l94-94q9-9 23.5-13.5T670-390l138 28q14 4 23 14.5t9 23.5v162q0 18-12 30t-30 12ZM241-600l66-66-17-94h-89q5 41 14 81t26 79Zm358 358q39 17 79.5 27t81.5 13v-88l-94-19-67 67ZM241-600Zm358 358Z"/>
</symbol>

<!--  email -->
<symbol id="email" viewBox="0 -960 960 960">
    <path d="M480-80q-83 0-156-31.5T197-197q-54-54-85.5-127T80-480q0-83 31.5-156T197-763q54-54 127-85.5T480-880q83 0 156 31.5T763-763q54 54 85.5 127T880-480v58q0 59-40.5 100.5T740-280q-35 0-66-15t-52-43q-29 29-65.5 43.5T480-280q-83 0-141.5-58.5T280-480q0-83 58.5-141.5T480-680q83 0 141.5 58.5T680-480v58q0 26 17 44t43 18q26 0 43-18t17-44v-58q0-134-93-227t-227-93q-134 0-227 93t-93 227q0 134 93 227t227 93h200v80H480Zm0-280q50 0 85-35t35-85q0-50-35-85t-85-35q-50 0-85 35t-35 85q0 50 35 85t85 35Z"/>
</symbol>

<!--  schedule -->
<symbol id="schedule" viewBox="0 -960 960 960">
    <path d="m612-292 56-56-148-148v-184h-80v216l172 172ZM480-80q-83 0-156-31.5T197-197q-54-54-85.5-127T80-480q0-83 31.5-156T197-763q54-54 127-85.5T480-880q83 0 156 31.5T763-763q54 54 85.5 127T880-480q0 83-31.5 156T763-197q-54 54-127 85.5T480-80Zm0-400Zm0 320q133 0 226.5-93.5T800-480q0-133-93.5-226.5T480-800q-133 0-226.5 93.5T160-480q0 133 93.5 226.5T480-160Z"/>
</symbol>

<!--  cheak -->
<symbol id="cheak" viewBox="0 -960 960 960">
    <path d="M382-240 154-468l57-57 171 171 367-367 57 57-424 424Z"/>
</symbol>

<!--  catalog -->
<symbol id="catalog" viewBox="0 -960 960 960">
    <path d="M320-560H160q-33 0-56.5-23.5T80-640v-160q0-33 23.5-56.5T160-880h160q33 0 56.5 23.5T400-800v160q0 33-23.5 56.5T320-560Zm-160-80h160v-160H160v160ZM320-80H160q-33 0-56.5-23.5T80-160v-160q0-33 23.5-56.5T160-400h160q33 0 56.5 23.5T400-320v160q0 33-23.5 56.5T320-80Zm-160-80h160v-160H160v160Zm640-400H640q-33 0-56.5-23.5T560-640v-160q0-33 23.5-56.5T640-880h160q33 0 56.5 23.5T880-800v160q0 33-23.5 56.5T800-560Zm-160-80h160v-160H640v160ZM800-80H640q-33 0-56.5-23.5T560-160v-160q0-33 23.5-56.5T640-400h160q33 0 56.5 23.5T880-320v160q0 33-23.5 56.5T800-80Zm-160-80h160v-160H640v160ZM320-640Zm0 320Zm320-320Zm0 320Z"/>
</symbol>

</svg>
