<?xml version="1.0" encoding="UTF-8"?>
<svg id="a" data-name="b" xmlns="http://www.w3.org/2000/svg" viewBox="0 0 183 41.2">
  <defs>
    <style>
      .c {
        fill: #343131;
      }

      .d {
        fill: #f2330d;
      }
    </style>
  </defs>
  <g id="b" data-name="c">
    <g>
      <path class="d" d="M145.5,4c-2.4-2.2-5.7-3.3-10.1-3.3h-13.4V25.1l5.5,2v-2.5h7.6c4.4,0,7.9-1.1,10.3-3.3,2.4-2.2,3.6-5.1,3.6-8.7s-1.1-6.4-3.5-8.6Zm-4.1,14.1c-1.3,1.4-3.1,2.1-5.4,2.1h-8.5V5.3h8.5c2.2,0,4,.7,5.4,2,1.4,1.4,2,3.2,2,5.4s-.6,4-2,5.4Z"/>
      <path class="d" d="M183,.7V5.5h-13.1V40.6h-5.5V5.5h-13.1V.7h31.7Z"/>
      <path class="d" d="M115,20.6c0,.6,0,1.2-.1,1.9l-4.9-1.8v-.1c0-8.6-7-15.6-15.6-15.6-2.8,0-5.44,.75-7.7,2.04-.74,.41-1.44,.88-2.09,1.42-.81,.61-1.54,1.27-2.11,2.04l-4.9-1.8-5.16-1.9c.4,.04,.81,.06,1.23,.06,3.11,0,5.98-1,8.31-2.71,.07-.05,.14-.1,.2-.14,3.42-2.53,7.67-4.01,12.22-4.01,11.4,.1,20.6,9.3,20.6,20.6Z"/>
    </g>
    <g>
      <path class="c" d="M9.7,38.1c-3.1-1.7-5.5-4.1-7.2-7.1-1.6-3-2.5-6.5-2.5-10.4s.8-7.3,2.5-10.3c1.7-3,4-5.4,7.2-7.1,3.1-1.7,6.8-2.5,11.2-2.5h14.5V40.6h-14.5c-4.4,0-8.1-.8-11.2-2.5ZM12.8,7.4c-2.3,1.3-4.1,3-5.3,5.3s-1.8,4.9-1.8,8,.6,5.7,1.8,8c1.2,2.3,3,4.1,5.3,5.3s5,1.9,8.1,1.9h9.1V5.5h-9.1c-3.1,0-5.8,.6-8.1,1.9h0Z"/>
      <path class="c" d="M52.3,23.3h-4.3v17.3h-5.5V.7h13.1c4.4,0,7.7,1,10.1,3.1,2.3,2.1,3.5,4.8,3.5,8.2,0,2.9-.9,5.3-2.7,7.3-1.8,2-4.3,3.2-7.7,3.7l15.2,17.6h-7.2l-14.5-17.3h0Zm-4.3-4.3h8.5c2.2,0,4-.6,5.2-1.9,1.3-1.3,1.9-2.9,1.9-5s-.7-3.8-1.9-5-3-1.9-5.2-1.9h-8.5v13.8h0Z"/>
      <path class="c" d="M114.5,25c-2,9.3-10.2,16.2-20.1,16.2-11.3,0-20.6-9.2-20.6-20.5,0-3.5,.9-6.9,2.5-9.8l4.7,1.7c-1.4,2.4-2.2,5.1-2.2,8.1,0,8.6,7,15.6,15.6,15.6,7.7,0,14.2-5.6,15.4-13l4.7,1.7Z"/>
      <path class="c" d="M131.82,31.57c-.29-.08-.59-.12-.9-.12-1.89,0-3.42,1.53-3.42,3.42v5.73h-5.5v-12.6l5.5,2,4.32,1.57h0Z"/>
    </g>
  </g>
</svg>