<svg width="204" height="144" viewBox="0 0 204 144" fill="none" xmlns="http://www.w3.org/2000/svg">
<path d="M122.549 34.2625H80.5488V109.738H122.549V34.2625Z" fill="#999797"/>
<path d="M83.2157 72C83.2091 64.7312 84.8563 57.5561 88.0325 51.018C91.2088 44.4799 95.8309 38.7502 101.549 34.2625C94.4679 28.6967 85.9639 25.2354 77.0087 24.2742C68.0536 23.313 59.0087 24.8908 50.9079 28.8271C42.807 32.7634 35.9771 38.8995 31.1987 46.534C26.4203 54.1686 23.8864 62.9934 23.8864 72C23.8864 81.0066 26.4203 89.8314 31.1987 97.4659C35.9771 105.1 42.807 111.237 50.9079 115.173C59.0087 119.109 68.0536 120.687 77.0087 119.726C85.9639 118.765 94.4679 115.303 101.549 109.738C95.8309 105.25 91.2088 99.52 88.0326 92.9819C84.8563 86.4438 83.2092 79.2688 83.2157 72Z" fill="#343131"/>
<path d="M179.209 72C179.209 81.0064 176.676 89.8312 171.898 97.4657C167.119 105.1 160.29 111.236 152.189 115.173C144.088 119.109 135.044 120.687 126.089 119.726C117.134 118.765 108.63 115.303 101.549 109.737C107.262 105.245 111.88 99.5145 115.056 92.9775C118.232 86.4404 119.882 79.2676 119.882 72C119.882 64.7323 118.232 57.5595 115.056 51.0225C111.88 44.4854 107.262 38.7547 101.549 34.2625C108.63 28.6966 117.134 25.2353 126.089 24.2742C135.044 23.313 144.088 24.8908 152.189 28.8272C160.29 32.7636 167.119 38.8997 171.898 46.5342C176.676 54.1687 179.209 62.9935 179.209 72Z" fill="#D6D6D6"/>
</svg>
