<svg width="204" height="144" viewBox="0 0 204 144" fill="none" xmlns="http://www.w3.org/2000/svg">
<path d="M91.3052 96.5425H78.7232L86.5929 47.882H99.1742L91.3052 96.5425Z" fill="#343131"/>
<path d="M136.916 49.0716C134.435 48.0871 130.498 47 125.631 47C113.206 47 104.456 53.6257 104.402 63.0985C104.299 70.0875 110.667 73.9694 115.429 76.2998C120.298 78.681 121.952 80.2353 121.952 82.3579C121.903 85.6178 118.018 87.1204 114.396 87.1204C109.373 87.1204 106.681 86.3457 102.591 84.532L100.934 83.7545L99.1735 94.6775C102.125 96.022 107.561 97.2151 113.206 97.2671C126.408 97.2671 135.002 90.7443 135.104 80.6495C135.155 75.1102 131.792 70.8657 124.543 67.3974C120.142 65.1709 117.447 63.6696 117.447 61.3915C117.499 59.3206 119.727 57.1993 124.695 57.1993C128.785 57.0955 131.79 58.0787 134.067 59.0625L135.205 59.5792L136.916 49.0716Z" fill="#343131"/>
<path d="M153.638 79.3037C154.675 76.5082 158.662 65.6889 158.662 65.6889C158.61 65.7928 159.696 62.8418 160.317 61.0303L161.197 65.2231C161.197 65.2231 163.579 76.8708 164.097 79.3037C162.13 79.3037 156.124 79.3037 153.638 79.3037ZM169.17 47.882H159.437C156.436 47.882 154.156 48.7613 152.861 51.9194L134.172 96.5417H147.374C147.374 96.5417 149.548 90.5358 150.015 89.2423C151.463 89.2423 164.305 89.2423 166.169 89.2423C166.53 90.9506 167.67 96.5417 167.67 96.5417H179.32L169.17 47.882Z" fill="#343131"/>
<path d="M68.2142 47.882L55.8922 81.0636L54.5457 74.334C52.2677 66.5689 45.1231 58.1323 37.1503 53.9374L48.4367 96.4905H61.7419L81.5186 47.882H68.2142Z" fill="#343131"/>
<path d="M44.4503 47.882H24.2071L24 48.8652C39.791 52.9032 50.249 62.6368 54.5458 74.3361L50.1451 51.9723C49.4206 48.8645 47.1942 47.9845 44.4503 47.882Z" fill="#999797"/>
</svg>
